<svg width="640" height="248" viewBox="0 0 640 248" fill="none" xmlns="http://www.w3.org/2000/svg">
<path d="M570.226 0H582.66C594.476 0.994681 604.924 4.55002 614.012 10.666C623.372 16.9701 630.217 25.0418 634.547 34.881C642.173 52.2408 641.762 76.1939 633.558 93.4528C622.478 116.801 599.56 127.689 573.102 126.761C535.898 125.471 512.691 98.8362 512.876 63.6731C512.957 46.2929 517.951 30.0421 530.286 17.7026C540.657 7.29881 553.972 1.39793 570.226 0ZM606.179 82.3434C610.206 71.7782 610.716 60.6821 607.7 49.0554C603.217 31.776 587.803 22.5618 569.856 25.5862C545.578 29.659 539.903 58.2898 545.19 77.2625C549.312 92.1292 558.74 100.288 573.472 101.74C587.803 103.151 601.163 95.4895 606.179 82.3434Z" fill="#F1F1F1"/>
<path d="M125.228 247.992H0V4.53015C0.370011 2.9306 1.74042 2.13082 4.11123 2.13082C85.6507 2.03673 167.197 1.9964 248.75 2.00984C249.29 2.00984 249.808 2.22227 250.189 2.60039C250.571 2.97851 250.785 3.49135 250.785 4.02609V123.005C250.785 124.362 250.093 125.041 248.709 125.041L126.564 124.86C125.797 124.86 125.413 125.236 125.413 125.989L125.228 247.992ZM96.6141 97.8218C96.6141 97.6841 96.6416 97.5477 96.6954 97.4206C96.7491 97.2935 96.8277 97.1779 96.927 97.0804C97.0263 96.983 97.1442 96.906 97.2737 96.8533C97.4033 96.8006 97.5424 96.7735 97.6828 96.7735H220.938C221.221 96.7735 221.493 96.6628 221.694 96.4662C221.894 96.2696 222.006 96.003 222.006 95.7249V31.2858C222.006 31.0077 221.894 30.741 221.694 30.5444C221.493 30.3477 221.221 30.2373 220.938 30.2373H29.8475C29.564 30.2373 29.2922 30.3477 29.0917 30.5444C28.8913 30.741 28.7786 31.0077 28.7786 31.2858V218.716C28.7786 218.994 28.8913 219.261 29.0917 219.457C29.2922 219.654 29.564 219.764 29.8475 219.764H95.5449C95.8285 219.764 96.1003 219.654 96.3008 219.457C96.5012 219.261 96.6141 218.994 96.6141 218.716V97.8218Z" fill="#F1F1F1"/>
<path d="M321.204 85.7644V123.045C321.204 123.757 320.841 124.114 320.114 124.114L292.651 124.214C292.455 124.214 292.266 124.138 292.128 124.002C291.989 123.866 291.911 123.681 291.911 123.488V4.06631C291.911 3.27325 292.315 2.87 293.124 2.85656C315.599 2.77591 335.621 2.82296 353.189 2.9977C383.879 3.3203 400.057 29.8339 391.958 57.3558C386.655 75.3206 369.86 83.97 351.483 84.4744C342 84.7432 332.311 84.7835 322.416 84.5953C321.608 84.5816 321.204 84.9717 321.204 85.7644ZM321.245 27.4951L321.121 59.5532C321.121 59.7299 321.193 59.8991 321.32 60.024C321.447 60.1488 321.62 60.2188 321.8 60.2188L348.009 60.3198C350.19 60.3278 352.352 59.9345 354.371 59.1617C356.389 58.3889 358.225 57.2521 359.772 55.816C361.32 54.3798 362.551 52.673 363.393 50.7922C364.235 48.9114 364.672 46.8938 364.68 44.8549V42.5161C364.695 38.399 362.961 34.4441 359.858 31.5213C356.754 28.5985 352.537 26.9472 348.132 26.9305L321.923 26.8297C321.743 26.8297 321.571 26.8998 321.443 27.0246C321.316 27.1494 321.245 27.3186 321.245 27.4951Z" fill="#F1F1F1"/>
<path d="M488.987 67.2964C498.36 70.791 503.471 77.6193 504.32 87.7815C505.02 96.0748 505.53 104.509 505.841 113.085C505.968 116.54 506.911 119.887 508.681 123.126C509.038 123.785 508.83 124.114 508.063 124.114L480.314 124.195C479.934 124.194 479.559 124.086 479.243 123.882C478.927 123.677 478.675 123.387 478.526 123.046C477.045 119.766 476.264 116.358 476.182 112.823C476.029 106.062 475.713 99.5831 475.234 93.3867C474.607 85.0797 470.028 80.4895 461.504 79.6157C456.474 79.1047 447.45 79.0042 434.431 79.3133C433.622 79.3265 433.218 79.73 433.218 80.5227V122.925C433.218 123.718 432.807 124.114 431.985 124.114L405.324 124.195C404.392 124.195 403.926 123.744 403.926 122.844V3.52244C403.926 3.34063 403.999 3.16626 404.13 3.0377C404.261 2.90914 404.439 2.83691 404.625 2.83691C424.413 2.89068 444.737 2.8974 465.595 2.85708C487.506 2.81675 506.027 13.4424 507.282 36.3066C508.049 50.111 501.931 60.0447 488.924 66.1069C487.994 66.5369 488.016 66.9333 488.987 67.2964ZM433.198 26.2455L433.239 57.2959C433.239 57.4403 433.297 57.5784 433.401 57.6807C433.505 57.7826 433.647 57.8402 433.794 57.8402L461.152 57.7795C465.437 57.7737 469.545 56.2047 472.57 53.4183C475.6 50.6314 477.297 46.8552 477.288 42.9199V40.46C477.279 36.5275 475.568 32.76 472.539 29.9851C469.505 27.2102 465.396 25.6549 461.111 25.6608L433.753 25.7011C433.606 25.7011 433.464 25.7585 433.36 25.8606C433.256 25.9627 433.198 26.1012 433.198 26.2455Z" fill="#F1F1F1"/>
<path d="M250.638 248H141.978L141.731 144.304C141.731 142.221 142.793 141.18 144.918 141.18L250.124 141.159C250.293 141.159 250.455 141.225 250.575 141.342C250.694 141.459 250.761 141.618 250.761 141.784L250.638 248ZM222.003 170.556C222.003 170.241 221.876 169.938 221.648 169.715C221.421 169.492 221.112 169.366 220.79 169.366H171.826C171.504 169.366 171.196 169.492 170.968 169.715C170.741 169.938 170.613 170.241 170.613 170.556V218.583C170.613 218.899 170.741 219.201 170.968 219.424C171.196 219.647 171.504 219.772 171.826 219.772H220.79C221.112 219.772 221.421 219.647 221.648 219.424C221.876 219.201 222.003 218.899 222.003 218.583V170.556Z" fill="#F1F1F1"/>
<path d="M315.037 216.177V245.473C315.037 246.145 314.694 246.481 314.009 246.481H292.939C292.254 246.481 291.911 246.145 291.911 245.473V150.609C291.911 149.924 292.261 149.587 292.96 149.601C305.225 149.842 317.873 149.842 330.906 149.601C352.141 149.197 370.62 156.234 371.977 180.006C373.129 200.148 360.178 213.697 339.828 214.645C332.263 215.008 324.493 215.055 316.517 214.786C315.53 214.759 315.037 215.223 315.037 216.177ZM315.057 169.4L314.975 195.087C314.975 195.2 315.021 195.307 315.102 195.386C315.182 195.466 315.292 195.51 315.407 195.51L335.922 195.591C337.636 195.597 339.335 195.284 340.921 194.671C342.506 194.058 343.948 193.157 345.164 192.018C346.381 190.88 347.346 189.527 348.007 188.036C348.668 186.546 349.011 184.948 349.016 183.332V181.397C349.027 178.135 347.662 175.003 345.221 172.689C342.781 170.375 339.466 169.069 336.004 169.057L315.489 168.977C315.374 168.977 315.265 169.022 315.184 169.101C315.103 169.18 315.057 169.288 315.057 169.4Z" fill="#F1F1F1"/>
<path d="M391.034 229.952L385.628 246.021C385.585 246.149 385.502 246.26 385.392 246.34C385.281 246.42 385.148 246.463 385.011 246.465L362.728 246.485C362.622 246.485 362.518 246.459 362.425 246.412C362.331 246.363 362.25 246.294 362.19 246.209C362.129 246.124 362.09 246.025 362.077 245.923C362.063 245.82 362.075 245.715 362.111 245.618L397.756 150.128C397.802 150.004 397.886 149.897 397.996 149.822C398.107 149.746 398.238 149.705 398.372 149.705H425.116C425.251 149.705 425.382 149.746 425.492 149.822C425.602 149.897 425.686 150.004 425.733 150.128L462.179 245.618C462.215 245.715 462.229 245.82 462.215 245.923C462.201 246.025 462.161 246.124 462.102 246.209C462.039 246.294 461.958 246.363 461.867 246.412C461.773 246.459 461.669 246.485 461.56 246.485H438.354C438.217 246.483 438.084 246.439 437.973 246.36C437.863 246.28 437.78 246.169 437.737 246.041L432.249 229.952C432.206 229.824 432.124 229.712 432.013 229.633C431.903 229.553 431.769 229.51 431.632 229.508H391.651C391.513 229.51 391.38 229.553 391.27 229.633C391.159 229.712 391.077 229.824 391.034 229.952ZM399.976 210.515L423.78 210.535C424.986 210.535 425.397 209.978 425.013 208.862L412.186 171.501C411.72 170.17 411.261 170.17 410.809 171.501L398.352 208.338C397.858 209.789 398.4 210.515 399.976 210.515Z" fill="#F1F1F1"/>
<path d="M537.498 201.307C544.28 203.78 548.086 208.908 548.908 216.691C549.576 222.954 550.023 229.763 550.244 237.116C550.326 239.777 550.985 242.519 552.195 244.898C552.619 245.758 552.348 246.182 551.373 246.168L532.338 246.108C529.394 246.094 527.818 244.649 527.611 241.773C527.091 234.716 526.694 228.197 526.419 222.215C526.089 214.943 522.238 211.159 514.865 210.864C508.508 210.622 501.834 210.581 494.845 210.743C493.938 210.77 493.486 211.22 493.486 212.094L493.509 245.16C493.509 246.047 493.057 246.491 492.15 246.491H471.76C471.074 246.491 470.73 246.155 470.73 245.483V150.296C470.73 150.171 470.78 150.051 470.87 149.96C470.956 149.87 471.078 149.817 471.205 149.812C488.127 149.583 504.747 149.604 521.055 149.872C539.449 150.175 552.773 161.667 551.251 180.902C550.529 190.056 545.188 195.702 537.377 200.037C536.496 200.534 536.537 200.957 537.498 201.307ZM493.549 168.583L493.468 192.738C493.468 192.935 493.545 193.125 493.689 193.265C493.834 193.405 494.023 193.484 494.227 193.484L515.501 193.564C517.113 193.57 518.707 193.28 520.197 192.712C521.682 192.143 523.037 191.307 524.179 190.251C525.322 189.195 526.229 187.94 526.848 186.558C527.466 185.174 527.791 183.691 527.796 182.193V179.37C527.805 176.344 526.527 173.437 524.233 171.289C521.944 169.142 518.833 167.929 515.587 167.918L494.308 167.837C494.109 167.837 493.915 167.916 493.771 168.056C493.631 168.195 493.549 168.385 493.549 168.583Z" fill="#F1F1F1"/>
<path d="M608.985 170.755V245.779C608.985 245.966 608.909 246.146 608.773 246.278C608.638 246.411 608.457 246.485 608.267 246.485H586.067C585.873 246.485 585.692 246.411 585.557 246.278C585.421 246.146 585.345 245.966 585.345 245.779V170.734C585.345 170.547 585.268 170.368 585.137 170.235C585.002 170.103 584.816 170.029 584.627 170.029L555.744 170.009C555.555 170.009 555.369 169.934 555.234 169.802C555.103 169.669 555.026 169.49 555.026 169.303L555.044 150.411C555.044 150.318 555.062 150.226 555.099 150.141C555.135 150.055 555.189 149.977 555.257 149.912C555.324 149.846 555.401 149.794 555.491 149.759C555.577 149.723 555.672 149.705 555.767 149.705H638.586C638.775 149.705 638.96 149.779 639.096 149.912C639.231 150.044 639.304 150.224 639.304 150.411V169.283C639.304 169.375 639.286 169.467 639.249 169.553C639.213 169.638 639.164 169.716 639.096 169.782C639.028 169.847 638.947 169.899 638.861 169.935C638.775 169.97 638.681 169.988 638.586 169.988L609.703 170.049C609.514 170.049 609.333 170.123 609.198 170.256C609.062 170.388 608.985 170.567 608.985 170.755Z" fill="#F1F1F1"/>
</svg>
