<svg width="18" height="18" viewBox="0 0 18 18" fill="none" xmlns="http://www.w3.org/2000/svg">
<path d="M15.75 14.25V13.0155C15.75 12.4022 15.3766 11.8506 14.8071 11.6228L13.2815 11.0126C12.5571 10.7229 11.7316 11.0367 11.3828 11.7345L11.25 12C11.25 12 9.375 11.625 7.875 10.125C6.375 8.625 6 6.75 6 6.75L6.26551 6.61724C6.96328 6.26836 7.27714 5.44285 6.98741 4.71852L6.37717 3.19291C6.14937 2.62343 5.59781 2.25 4.98445 2.25H3.75C2.92157 2.25 2.25 2.92157 2.25 3.75C2.25 10.3774 7.62258 15.75 14.25 15.75C15.0784 15.75 15.75 15.0784 15.75 14.25Z" stroke="#ECECEC" stroke-width="1.5" stroke-linejoin="round"/>
</svg>
