<svg width="48" height="48" viewBox="0 0 48 48" fill="none" xmlns="http://www.w3.org/2000/svg">
<rect x="0.3" y="0.3" width="47.4" height="47.4" rx="23.7" stroke="#B6B4B3" stroke-width="0.6"/>
<path d="M32.3337 23.9998C32.3337 28.6022 28.6027 32.3332 24.0003 32.3332M32.3337 23.9998C32.3337 19.3975 28.6027 15.6665 24.0003 15.6665M32.3337 23.9998C32.3337 22.6191 28.6027 21.4998 24.0003 21.4998C19.398 21.4998 15.667 22.6191 15.667 23.9998M32.3337 23.9998C32.3337 25.3805 28.6027 26.4998 24.0003 26.4998C19.398 26.4998 15.667 25.3805 15.667 23.9998M24.0003 32.3332C19.398 32.3332 15.667 28.6022 15.667 23.9998M24.0003 32.3332C25.8413 32.3332 27.3337 28.6022 27.3337 23.9998C27.3337 19.3975 25.8413 15.6665 24.0003 15.6665M24.0003 32.3332C22.1594 32.3332 20.667 28.6022 20.667 23.9998C20.667 19.3975 22.1594 15.6665 24.0003 15.6665M15.667 23.9998C15.667 19.3975 19.398 15.6665 24.0003 15.6665" stroke="#313131" stroke-width="1.2"/>
</svg>
