<svg width="28" height="28" viewBox="0 0 28 28" fill="none" xmlns="http://www.w3.org/2000/svg">
<path fill-rule="evenodd" clip-rule="evenodd" d="M5.66699 0.666626C2.90557 0.666626 0.666992 2.9052 0.666992 5.66662V22.3333C0.666992 25.0947 2.90557 27.3333 5.66699 27.3333H22.3337C25.0951 27.3333 27.3337 25.0947 27.3337 22.3333V5.66663C27.3337 2.9052 25.0951 0.666626 22.3337 0.666626H5.66699ZM22.0003 7.33329C22.7367 7.33329 23.3337 6.73634 23.3337 5.99996C23.3337 5.26358 22.7367 4.66663 22.0003 4.66663C21.2639 4.66663 20.667 5.26358 20.667 5.99996C20.667 6.73634 21.2639 7.33329 22.0003 7.33329ZM20.667 14C20.667 17.6819 17.6822 20.6666 14.0003 20.6666C10.3184 20.6666 7.33366 17.6819 7.33366 14C7.33366 10.3181 10.3184 7.33329 14.0003 7.33329C17.6822 7.33329 20.667 10.3181 20.667 14ZM14.0003 18C16.2095 18 18.0003 16.2091 18.0003 14C18.0003 11.7908 16.2095 9.99996 14.0003 9.99996C11.7912 9.99996 10.0003 11.7908 10.0003 14C10.0003 16.2091 11.7912 18 14.0003 18Z" fill="#313131"/>
</svg>
