<svg width="32" height="32" viewBox="0 0 32 32" fill="none" xmlns="http://www.w3.org/2000/svg">
<path fill-rule="evenodd" clip-rule="evenodd" d="M29.3337 16C29.3337 23.3638 23.3641 29.3333 16.0003 29.3333C13.9635 29.3333 12.0334 28.8766 10.3067 28.06L4.04148 29.1042C3.36649 29.2167 2.78046 28.6332 2.88997 27.9578L3.91449 21.6387C3.11408 19.926 2.66699 18.0152 2.66699 16C2.66699 8.63616 8.63653 2.66663 16.0003 2.66663C23.3641 2.66663 29.3337 8.63616 29.3337 16ZM21.3336 19.5665V20.1481C21.3336 20.8027 20.803 21.3333 20.1484 21.3333C14.912 21.3333 10.667 17.0883 10.667 11.8518C10.667 11.1973 11.1976 10.6666 11.8521 10.6666H12.4337C13.1562 10.6666 13.8059 11.1065 14.0742 11.7772L14.323 12.3993C14.6011 13.0947 14.2998 13.8872 13.6299 14.2222C13.6299 14.2222 13.9262 15.7037 15.1114 16.8888C16.2966 18.074 17.7781 18.3703 17.7781 18.3703C18.113 17.7004 18.9056 17.3991 19.601 17.6773L20.223 17.9261C20.8938 18.1944 21.3336 18.8441 21.3336 19.5665Z" fill="#313131"/>
</svg>
