<svg width="224" height="48" viewBox="0 0 224 48" fill="none" xmlns="http://www.w3.org/2000/svg">
<path d="M92.0684 4H94.0761C95.9838 4.16043 97.6707 4.73387 99.1382 5.72031C100.649 6.7371 101.755 8.03899 102.454 9.62596C103.685 12.4259 103.619 16.2893 102.294 19.073C100.505 22.8388 96.8047 24.595 92.5328 24.4453C86.5259 24.2372 82.7789 19.9413 82.8088 14.2698C82.8219 11.4666 83.6282 8.84549 85.6198 6.85526C87.2943 5.17723 89.4441 4.22547 92.0684 4ZM97.8734 17.2812C98.5237 15.5771 98.606 13.7874 98.1191 11.9121C97.3952 9.12515 94.9064 7.63899 92.0086 8.12679C88.0889 8.7837 87.1725 13.4016 88.0262 16.4617C88.6917 18.8595 90.2139 20.1755 92.5926 20.4096C94.9064 20.6373 97.0635 19.4015 97.8734 17.2812Z" fill="#313131"/>
<path d="M20.2192 43.9986H0V4.73064C0.0597418 4.47264 0.281007 4.34365 0.663797 4.34365C13.8291 4.32847 26.9955 4.32197 40.1631 4.32414C40.2502 4.32414 40.3338 4.3584 40.3954 4.41939C40.457 4.48037 40.4916 4.56309 40.4916 4.64934V23.8394C40.4916 24.0584 40.3799 24.1679 40.1565 24.1679L20.435 24.1386C20.3111 24.1386 20.2491 24.1993 20.2491 24.3207L20.2192 43.9986ZM15.5993 19.7776C15.5993 19.7554 15.6037 19.7334 15.6124 19.7129C15.6211 19.6924 15.6337 19.6738 15.6498 19.6581C15.6658 19.6424 15.6848 19.6299 15.7058 19.6214C15.7267 19.6129 15.7491 19.6086 15.7718 19.6086H35.6725C35.7183 19.6086 35.7622 19.5907 35.7945 19.559C35.8269 19.5273 35.845 19.4843 35.845 19.4394V9.04605C35.845 9.0012 35.8269 8.95819 35.7945 8.92647C35.7622 8.89476 35.7183 8.87694 35.6725 8.87694H4.81917C4.7734 8.87694 4.7295 8.89476 4.69714 8.92647C4.66477 8.95819 4.64658 9.0012 4.64658 9.04605V39.2767C4.64658 39.3215 4.66477 39.3645 4.69714 39.3963C4.7295 39.428 4.7734 39.4458 4.81917 39.4458H15.4266C15.4724 39.4458 15.5163 39.428 15.5487 39.3963C15.581 39.3645 15.5993 39.3215 15.5993 39.2767V19.7776Z" fill="#313131"/>
<path d="M51.8614 17.833V23.846C51.8614 23.9608 51.8028 24.0183 51.6855 24.0183L47.2513 24.0345C47.2196 24.0345 47.1892 24.0223 47.1668 24.0003C47.1445 23.9783 47.1318 23.9485 47.1318 23.9175V4.65587C47.1318 4.52796 47.1971 4.46292 47.3276 4.46075C50.9564 4.44774 54.1891 4.45533 57.0257 4.48352C61.981 4.53555 64.593 8.81193 63.2854 13.2509C62.4291 16.1485 59.7174 17.5435 56.7502 17.6249C55.2191 17.6682 53.6547 17.6747 52.0572 17.6444C51.9266 17.6422 51.8614 17.7051 51.8614 17.833ZM51.868 8.4347L51.8481 13.6054C51.8481 13.6339 51.8596 13.6611 51.8802 13.6813C51.9008 13.7014 51.9286 13.7127 51.9576 13.7127L56.1893 13.729C56.5415 13.7303 56.8906 13.6669 57.2165 13.5422C57.5424 13.4176 57.8388 13.2342 58.0887 13.0026C58.3386 12.7709 58.5373 12.4956 58.6732 12.1923C58.8092 11.8889 58.8798 11.5635 58.8811 11.2347V10.8574C58.8836 10.1934 58.6035 9.55551 58.1025 9.08409C57.6014 8.61267 56.9205 8.34633 56.2092 8.34364L51.9775 8.32739C51.9485 8.32739 51.9207 8.33869 51.9001 8.35881C51.8795 8.37894 51.868 8.40624 51.868 8.4347Z" fill="#313131"/>
<path d="M78.9517 14.8542C80.4651 15.4178 81.2903 16.5192 81.4273 18.1582C81.5403 19.4959 81.6227 20.8563 81.673 22.2395C81.6934 22.7966 81.8458 23.3365 82.1316 23.859C82.1891 23.9652 82.1556 24.0183 82.0317 24.0183L77.5513 24.0313C77.4901 24.0313 77.4296 24.0138 77.3785 23.9808C77.3275 23.9479 77.2867 23.901 77.2626 23.846C77.0235 23.317 76.8974 22.7674 76.8843 22.1972C76.8595 21.1067 76.8085 20.0617 76.7312 19.0623C76.6299 17.7225 75.8907 16.9821 74.5143 16.8412C73.7022 16.7587 72.2452 16.7425 70.1431 16.7924C70.0126 16.7945 69.9473 16.8596 69.9473 16.9875V23.8265C69.9473 23.9544 69.8809 24.0183 69.7482 24.0183L65.4435 24.0313C65.293 24.0313 65.2178 23.9587 65.2178 23.8135V4.56809C65.2178 4.53876 65.2297 4.51064 65.2508 4.4899C65.2719 4.46917 65.3007 4.45752 65.3306 4.45752C68.5256 4.46619 71.8071 4.46728 75.1748 4.46077C78.7126 4.45427 81.7029 6.16807 81.9056 9.85585C82.0295 12.0824 81.0417 13.6846 78.9415 14.6623C78.7913 14.7317 78.795 14.7956 78.9517 14.8542ZM69.944 8.2331L69.9506 13.2412C69.9506 13.2645 69.9601 13.2868 69.9769 13.3033C69.9937 13.3197 70.0165 13.329 70.0403 13.329L74.4575 13.3192C75.1493 13.3183 75.8126 13.0652 76.3011 12.6158C76.7902 12.1663 77.0643 11.5572 77.0629 10.9225V10.5258C77.0614 9.89148 76.7851 9.28381 76.296 8.83625C75.8061 8.38869 75.1427 8.13783 74.4509 8.13879L70.0336 8.14529C70.0099 8.14529 69.9871 8.15454 69.9702 8.17101C69.9534 8.18748 69.944 8.20981 69.944 8.2331Z" fill="#313131"/>
<path d="M40.4678 43.9999H22.9236L22.8838 27.2749C22.8838 26.9389 23.0552 26.7709 23.3982 26.7709L40.3848 26.7676C40.4121 26.7676 40.4383 26.7782 40.4576 26.7971C40.4768 26.816 40.4877 26.8417 40.4877 26.8684L40.4678 43.9999ZM35.8445 31.509C35.8445 31.4581 35.8238 31.4093 35.7871 31.3733C35.7504 31.3373 35.7006 31.3171 35.6486 31.3171H27.7428C27.6908 31.3171 27.641 31.3373 27.6043 31.3733C27.5676 31.4093 27.547 31.4581 27.547 31.509V39.2553C27.547 39.3062 27.5676 39.355 27.6043 39.391C27.641 39.4269 27.6908 39.4471 27.7428 39.4471H35.6486C35.7006 39.4471 35.7504 39.4269 35.7871 39.391C35.8238 39.355 35.8445 39.3062 35.8445 39.2553V31.509Z" fill="#313131"/>
<path d="M50.8657 38.8672V43.5924C50.8657 43.7007 50.8104 43.7549 50.6997 43.7549H47.2978C47.1872 43.7549 47.1318 43.7007 47.1318 43.5924V28.2917C47.1318 28.1812 47.1883 28.1269 47.3011 28.1291C49.2814 28.1681 51.3237 28.1681 53.4279 28.1291C56.8564 28.064 59.8402 29.199 60.0593 33.0331C60.2452 36.2819 58.1542 38.4672 54.8684 38.6201C53.647 38.6786 52.3925 38.6862 51.1046 38.6428C50.9453 38.6385 50.8657 38.7133 50.8657 38.8672ZM50.869 31.3226L50.8557 35.4656C50.8557 35.4837 50.8631 35.5011 50.8762 35.5139C50.8892 35.5267 50.9069 35.5339 50.9254 35.5339L54.2378 35.5469C54.5146 35.5478 54.7888 35.4974 55.0449 35.3985C55.3009 35.2996 55.5338 35.1542 55.7301 34.9706C55.9265 34.787 56.0824 34.5687 56.1891 34.3284C56.2958 34.088 56.3512 33.8302 56.352 33.5697V33.2575C56.3537 32.7314 56.1333 32.2262 55.7393 31.853C55.3453 31.4798 54.8099 31.2691 54.251 31.2673L50.9387 31.2543C50.9202 31.2543 50.9025 31.2615 50.8894 31.2743C50.8764 31.2871 50.869 31.3044 50.869 31.3226Z" fill="#313131"/>
<path d="M63.1363 41.089L62.2634 43.6808C62.2564 43.7014 62.2431 43.7194 62.2252 43.7322C62.2075 43.7451 62.1859 43.7521 62.1638 43.7524L58.566 43.7556C58.5489 43.7556 58.5321 43.7515 58.517 43.7438C58.5018 43.736 58.4889 43.7248 58.4791 43.7111C58.4693 43.6974 58.4631 43.6815 58.4609 43.6649C58.4586 43.6484 58.4606 43.6315 58.4664 43.6158L64.2216 28.2143C64.229 28.1943 64.2426 28.177 64.2604 28.1648C64.2782 28.1526 64.2994 28.146 64.3211 28.146H68.6391C68.6609 28.146 68.6821 28.1526 68.6999 28.1648C68.7176 28.177 68.7312 28.1943 68.7387 28.2143L74.6233 43.6158C74.6291 43.6315 74.6313 43.6484 74.6291 43.6649C74.6269 43.6815 74.6204 43.6974 74.6109 43.7111C74.6007 43.7248 74.5876 43.736 74.573 43.7438C74.5577 43.7515 74.5409 43.7556 74.5234 43.7556H70.7765C70.7545 43.7554 70.7329 43.7483 70.7151 43.7355C70.6972 43.7226 70.6839 43.7046 70.677 43.6841L69.7908 41.089C69.7839 41.0684 69.7706 41.0504 69.7527 41.0375C69.7349 41.0247 69.7134 41.0177 69.6912 41.0175H63.2358C63.2137 41.0177 63.1922 41.0247 63.1743 41.0375C63.1565 41.0504 63.1432 41.0684 63.1363 41.089ZM64.58 37.9541L68.4234 37.9573C68.6181 37.9573 68.6845 37.8673 68.6225 37.6873L66.5515 31.6614C66.4763 31.4468 66.4022 31.4468 66.3291 31.6614L64.3178 37.6028C64.2381 37.837 64.3255 37.9541 64.58 37.9541Z" fill="#313131"/>
<path d="M86.7842 36.4687C87.8792 36.8676 88.4937 37.6947 88.6264 38.95C88.7343 39.9603 88.8065 41.0584 88.8422 42.2443C88.8553 42.6735 88.9617 43.1158 89.1571 43.4995C89.2256 43.6383 89.1819 43.7066 89.0244 43.7044L85.951 43.6947C85.4757 43.6925 85.2213 43.4594 85.1877 42.9955C85.1039 41.8573 85.0398 40.8058 84.9953 39.841C84.9421 38.6681 84.3202 38.0578 83.1298 38.0101C82.1034 37.9711 81.0259 37.9646 79.8974 37.9906C79.7509 37.995 79.678 38.0676 79.678 38.2086L79.6817 43.5418C79.6817 43.6849 79.6088 43.7564 79.4622 43.7564H76.1701C76.0593 43.7564 76.0039 43.7022 76.0039 43.5939V28.2412C76.0039 28.221 76.0119 28.2017 76.0265 28.1871C76.0404 28.1725 76.06 28.1639 76.0804 28.1631C78.8127 28.1262 81.4961 28.1295 84.1292 28.1729C87.0992 28.2217 89.2504 30.0753 89.0047 33.1777C88.8881 34.6541 88.0257 35.5647 86.7646 36.2639C86.6224 36.3441 86.629 36.4124 86.7842 36.4687ZM79.6882 31.1907L79.6751 35.0866C79.6751 35.1185 79.6875 35.1492 79.7108 35.1717C79.7342 35.1942 79.7648 35.2069 79.7976 35.2069L83.2326 35.2199C83.4928 35.2209 83.7502 35.1741 83.9907 35.0824C84.2306 34.9907 84.4493 34.8559 84.6337 34.6856C84.8181 34.5152 84.9647 34.3128 85.0645 34.0898C85.1644 33.8667 85.2169 33.6275 85.2176 33.3858V32.9305C85.2191 32.4424 85.0128 31.9736 84.6425 31.6272C84.2729 31.2808 83.7706 31.0852 83.2464 31.0834L79.8107 31.0704C79.7786 31.0704 79.7473 31.0831 79.724 31.1056C79.7014 31.1282 79.6882 31.1588 79.6882 31.1907Z" fill="#313131"/>
<path d="M98.3264 31.5411V43.6418C98.3264 43.672 98.314 43.7009 98.2922 43.7223C98.2703 43.7436 98.2411 43.7556 98.2105 43.7556H94.6261C94.5947 43.7556 94.5656 43.7436 94.5437 43.7223C94.5218 43.7009 94.5094 43.672 94.5094 43.6418V31.5378C94.5094 31.5076 94.497 31.4787 94.4759 31.4573C94.454 31.436 94.4241 31.424 94.3935 31.424L89.7302 31.4208C89.6995 31.4208 89.6697 31.4088 89.6478 31.3874C89.6266 31.366 89.6143 31.3371 89.6143 31.307L89.6172 28.2598C89.6172 28.2449 89.6201 28.2301 89.6259 28.2163C89.6318 28.2024 89.6405 28.1899 89.6514 28.1794C89.6624 28.1688 89.6748 28.1604 89.6893 28.1546C89.7032 28.1489 89.7185 28.146 89.7338 28.146H103.106C103.136 28.146 103.166 28.158 103.188 28.1794C103.21 28.2006 103.222 28.2296 103.222 28.2598V31.3037C103.222 31.3186 103.219 31.3334 103.213 31.3473C103.207 31.361 103.199 31.3736 103.188 31.3842C103.177 31.3948 103.164 31.4031 103.15 31.4088C103.136 31.4145 103.121 31.4175 103.106 31.4175L98.4424 31.4273C98.4117 31.4273 98.3826 31.4393 98.3607 31.4606C98.3388 31.482 98.3264 31.5109 98.3264 31.5411Z" fill="#313131"/>
</svg>
