<svg width="33" height="32" viewBox="0 0 33 32" fill="none" xmlns="http://www.w3.org/2000/svg">
<path d="M16.1754 31.9987H0V0.584315C0.0477934 0.377921 0.224806 0.274724 0.531038 0.274724C11.0633 0.262583 21.5964 0.25738 32.1305 0.259114C32.2002 0.259114 32.2671 0.286524 32.3163 0.335314C32.3656 0.384103 32.3933 0.450276 32.3933 0.519275V15.8713C32.3933 16.0465 32.3039 16.1341 32.1252 16.1341L16.348 16.1107C16.2489 16.1107 16.1993 16.1593 16.1993 16.2563L16.1754 31.9987ZM12.4794 12.6219C12.4794 12.6042 12.483 12.5865 12.4899 12.5702C12.4968 12.5538 12.507 12.5388 12.5198 12.5263C12.5327 12.5137 12.5479 12.5038 12.5646 12.497C12.5814 12.4902 12.5993 12.4867 12.6175 12.4867H28.538C28.5746 12.4867 28.6097 12.4724 28.6356 12.447C28.6615 12.4216 28.676 12.3872 28.676 12.3514V4.03664C28.676 4.00076 28.6615 3.96635 28.6356 3.94098C28.6097 3.91561 28.5746 3.90136 28.538 3.90136H3.85534C3.81872 3.90136 3.7836 3.91561 3.75771 3.94098C3.73181 3.96635 3.71726 4.00076 3.71726 4.03664V28.2212C3.71726 28.257 3.73181 28.2914 3.75771 28.3168C3.7836 28.3422 3.81872 28.3564 3.85534 28.3564H12.3413C12.3779 28.3564 12.413 28.3422 12.4389 28.3168C12.4648 28.2914 12.4794 28.257 12.4794 28.2212V12.6219Z" fill="#313131"/>
<path d="M32.3739 31.9997H18.3385L18.3066 18.6197C18.3066 18.3509 18.4438 18.2165 18.7182 18.2165L32.3075 18.2139C32.3293 18.2139 32.3502 18.2224 32.3657 18.2375C32.3811 18.2526 32.3898 18.2731 32.3898 18.2945L32.3739 31.9997ZM28.6752 22.007C28.6752 21.9663 28.6587 21.9273 28.6293 21.8985C28.5999 21.8697 28.5601 21.8535 28.5185 21.8535H22.1939C22.1523 21.8535 22.1124 21.8697 22.0831 21.8985C22.0537 21.9273 22.0372 21.9663 22.0372 22.007V28.204C22.0372 28.2447 22.0537 28.2838 22.0831 28.3126C22.1124 28.3413 22.1523 28.3575 22.1939 28.3575H28.5185C28.5601 28.3575 28.5999 28.3413 28.6293 28.3126C28.6587 28.2838 28.6752 28.2447 28.6752 28.204V22.007Z" fill="#313131"/>
</svg>
