<svg width="20" height="20" viewBox="0 0 20 20" fill="none" xmlns="http://www.w3.org/2000/svg">
<g clip-path="url(#clip0_647_2400)">
<path d="M7.192 8.69518C6.71315 7.73934 5.72454 7.08317 4.58268 7.08317C2.97185 7.08317 1.66602 8.38901 1.66602 9.99984C1.66602 11.6107 2.97185 12.9165 4.58268 12.9165C5.72454 12.9165 6.71315 12.2603 7.192 11.3045M7.192 8.69518C7.38867 9.08775 7.49935 9.53087 7.49935 9.99984C7.49935 10.4688 7.38867 10.9119 7.192 11.3045M7.192 8.69518L12.8067 5.88783M7.192 11.3045L12.8067 14.1118M12.8067 5.88783C13.2856 6.84367 14.2742 7.49984 15.416 7.49984C17.0268 7.49984 18.3327 6.194 18.3327 4.58317C18.3327 2.97234 17.0268 1.6665 15.416 1.6665C13.8052 1.6665 12.4993 2.97234 12.4993 4.58317C12.4993 5.05214 12.61 5.49526 12.8067 5.88783ZM12.8067 14.1118C12.61 14.5044 12.4993 14.9475 12.4993 15.4165C12.4993 17.0273 13.8052 18.3332 15.416 18.3332C17.0268 18.3332 18.3327 17.0273 18.3327 15.4165C18.3327 13.8057 17.0268 12.4998 15.416 12.4998C14.2742 12.4998 13.2856 13.156 12.8067 14.1118Z" stroke="#313131" stroke-width="1.5" stroke-linecap="round"/>
</g>
<defs>
<clipPath id="clip0_647_2400">
<rect width="20" height="20" fill="white"/>
</clipPath>
</defs>
</svg>
