<!-- <svg width="20" height="20" viewBox="0 0 20 20" fill="none" xmlns="http://www.w3.org/2000/svg">
<path d="M12.7383 3.3335C10.9851 3.3335 9.56384 4.82588 9.56384 6.66683C9.56384 6.94501 9.59629 7.21524 9.65744 7.47356C7.75 7.47356 4.75 7.0372 2.5 4.07424C2.5 11.4816 5.5 13.5804 7 13.7039C5.875 14.815 4.12208 15.6374 2.5 15.7921C3.19786 16.4257 5.38369 16.6392 6.38937 16.6668C11.5901 16.6668 15.8171 12.2894 15.9112 6.85207C16.9086 6.20342 17.3823 4.44497 17.5 4.07424C17.0141 4.58449 16 4.81498 15.1919 4.55167C14.6097 3.80788 13.7268 3.3335 12.7383 3.3335Z" stroke="#313131" stroke-width="1.5" stroke-linejoin="round"/>
</svg> -->
<svg xmlns="http://www.w3.org/2000/svg" width="300" height="271">
 <path d="m236 0h46l-101 115 118 156h-92.6l-72.5-94.8-83 94.8h-46l107-123-113-148h94.9l65.5 86.6zm-16.1 244h25.5l-165-218h-27.4z"/>
</svg>