<svg width="20" height="20" viewBox="0 0 20 20" fill="none" xmlns="http://www.w3.org/2000/svg">
<g clip-path="url(#clip0_62_445)">
<path d="M7.19298 8.69518C6.71412 7.73934 5.72552 7.08317 4.58366 7.08317C2.97283 7.08317 1.66699 8.38901 1.66699 9.99984C1.66699 11.6107 2.97283 12.9165 4.58366 12.9165C5.72552 12.9165 6.71412 12.2603 7.19298 11.3045M7.19298 8.69518C7.38964 9.08775 7.50033 9.53087 7.50033 9.99984C7.50033 10.4688 7.38964 10.9119 7.19298 11.3045M7.19298 8.69518L12.8077 5.88783M7.19298 11.3045L12.8077 14.1118M12.8077 5.88783C13.2865 6.84367 14.2751 7.49984 15.417 7.49984C17.0278 7.49984 18.3337 6.194 18.3337 4.58317C18.3337 2.97234 17.0278 1.6665 15.417 1.6665C13.8062 1.6665 12.5003 2.97234 12.5003 4.58317C12.5003 5.05214 12.611 5.49526 12.8077 5.88783ZM12.8077 14.1118C12.611 14.5044 12.5003 14.9475 12.5003 15.4165C12.5003 17.0273 13.8062 18.3332 15.417 18.3332C17.0278 18.3332 18.3337 17.0273 18.3337 15.4165C18.3337 13.8057 17.0278 12.4998 15.417 12.4998C14.2751 12.4998 13.2865 13.156 12.8077 14.1118Z" stroke="#313131" stroke-width="1.5" stroke-linecap="round"/>
</g>
<defs>
<clipPath id="clip0_62_445">
<rect width="20" height="20" fill="white"/>
</clipPath>
</defs>
</svg>
