<svg width="20" height="20" viewBox="0 0 20 20" fill="none" xmlns="http://www.w3.org/2000/svg">
<path d="M6.66675 3.35414C5.11069 3.52832 3.21672 4.8184 2.26854 5.53534C1.87956 5.82946 1.66675 6.29339 1.66675 6.78104L1.66675 14.8389C1.66675 15.5501 2.52333 15.9625 3.11364 15.5658C4.12154 14.8885 5.49066 14.1194 6.66675 13.9878M6.66675 3.35414C9.432 3.04462 10.5682 6.32208 13.3334 6.01255M6.66675 3.35414L6.66675 13.9878M13.3334 6.01255C14.5095 5.88091 15.8786 5.1118 16.8865 4.43449C17.4768 4.03781 18.3334 4.45022 18.3334 5.16144V13.2193C18.3334 13.7069 18.1206 14.1709 17.7316 14.465C16.7834 15.1819 14.8895 16.472 13.3334 16.6462M13.3334 6.01255V16.6462M6.66675 13.9878C9.432 13.6782 10.5682 16.9557 13.3334 16.6462" stroke="white" stroke-width="1.5"/>
</svg>
