<svg width="18" height="18" viewBox="0 0 18 18" fill="none" xmlns="http://www.w3.org/2000/svg">
<g clip-path="url(#clip0)">
<path d="M15.3516 2.625C13.6875 0.960938 11.4609 0.046875 9.09375 0.046875C4.21875 0.046875 0.234375 4.03125 0.234375 8.90625C0.234375 10.4297 0.632812 11.9062 1.38281 13.2188L0.164062 17.5547L4.59375 16.3594C5.85938 17.0391 7.28906 17.3906 8.71875 17.3906H9.09375C13.9219 17.3906 17.9531 13.4062 17.9531 8.53125C17.9531 6.16406 17.0156 3.9375 15.3516 2.625ZM9.09375 15.9609C7.80469 15.9609 6.5625 15.6328 5.48438 15L5.25 14.8594L2.85938 15.5156L3.53906 13.1953L3.375 12.9375C2.67188 11.8125 2.29688 10.5 2.29688 9.1875C2.29688 5.20312 5.53125 1.96875 9.51562 1.96875C11.4609 1.96875 13.3125 2.71875 14.6953 4.10156C16.0781 5.48438 16.875 7.35938 16.875 9.28125C16.875 13.2656 13.5938 15.9609 9.09375 15.9609ZM13.5938 11.1094C13.3828 11.0156 12.375 10.5234 12.1875 10.4531C12 10.3828 11.8594 10.3594 11.7188 10.5469C11.5781 10.7578 11.1797 11.2266 11.0625 11.3672C10.9453 11.5078 10.8047 11.5312 10.5938 11.4141C10.3828 11.3203 9.70312 11.1094 8.90625 10.4062C8.29688 9.84375 7.875 9.1875 7.73438 8.97656C7.61719 8.76562 7.71094 8.64844 7.82812 8.53125C7.92188 8.4375 8.03906 8.29688 8.13281 8.17969C8.22656 8.0625 8.27344 7.96875 8.34375 7.82812C8.41406 7.6875 8.39062 7.57031 8.34375 7.47656C8.29688 7.38281 7.875 6.375 7.71094 5.95312C7.54688 5.57812 7.35938 5.60156 7.24219 5.60156H6.86719C6.72656 5.60156 6.49219 5.64844 6.30469 5.85938C6.11719 6.07031 5.57812 6.5625 5.57812 7.57031C5.57812 8.57812 6.32812 9.53906 6.42188 9.67969C6.51562 9.82031 7.875 11.9062 9.98438 12.7734C11.2266 13.2891 11.6953 13.3125 12.2812 13.2188C12.6328 13.1719 13.4531 12.7969 13.6172 12.375C13.7812 11.9531 13.7812 11.5781 13.7344 11.5078C13.6875 11.4375 13.5703 11.3906 13.3594 11.2969L13.5938 11.1094Z" fill="#ECECEC"/>
</g>
<defs>
<clipPath id="clip0">
<rect width="18" height="18" fill="white"/>
</clipPath>
</defs>
</svg>
