<svg width="20" height="20" viewBox="0 0 20 20" fill="none" xmlns="http://www.w3.org/2000/svg">
<g id="airplane_svgrepo.com">
<path id="Vector" d="M8.30013 11.7V10.775C8.30013 10.4167 8.03346 10.2417 7.70846 10.3833L3.53346 12.1833C2.87513 12.4667 2.3418 12.1167 2.3418 11.4083V10.3083C2.3418 9.74167 2.7668 9.08333 3.2918 8.86667L8.0418 6.82497C8.17513 6.7583 8.2918 6.5833 8.2918 6.4333V3.8833C8.2918 3.0833 8.88342 2.12497 9.59176 1.7583C9.84176 1.6333 10.1418 1.6333 10.3918 1.7583C11.1084 2.12497 11.7001 3.07497 11.7001 3.87497V6.42497C11.7001 6.57497 11.8168 6.74997 11.9501 6.81663L12.8168 7.1833L8.30013 11.7Z" fill="#ECECEC"/>
<path id="Vector_2" opacity="0.4" d="M17.6577 10.3086V11.4086C17.6577 12.1169 17.1243 12.4669 16.466 12.1836L12.291 10.3836C11.9577 10.2502 11.6993 10.4169 11.6993 10.7752V13.2002C11.6993 13.3919 11.8077 13.6669 11.9493 13.8002L13.8827 15.7419C14.0827 15.9419 14.1743 16.3419 14.0827 16.6169L13.7077 17.7502C13.541 18.2419 12.9827 18.4669 12.5243 18.2419L10.541 16.5752C10.241 16.3169 9.74934 16.3169 9.44934 16.5752L7.46599 18.2419C7.00765 18.4752 6.44932 18.2419 6.29932 17.7502L5.92432 16.6169C5.83265 16.3336 5.92432 15.9419 6.12432 15.7419L8.05765 13.8002C8.19099 13.6669 8.29932 13.3919 8.29932 13.2002V11.7002L12.816 7.18359L16.7077 8.85858C17.2327 9.08358 17.6577 9.74191 17.6577 10.3086Z" fill="#ECECEC"/>
</g>
</svg>
