<svg width="16" height="16" viewBox="0 0 16 16" fill="none" xmlns="http://www.w3.org/2000/svg">
<g id="Huge-icon/weather/outline/cloud-sun">
<path id="Vector" d="M8.57965 7.85773C8.34302 8.0897 8.33924 8.46958 8.57122 8.70622C8.80319 8.94285 9.18307 8.94662 9.4197 8.71465L8.57965 7.85773ZM10.2921 7.49909L10.4793 8.06913L10.2921 7.49909ZM7.87283 5.05781L7.63176 5.60726L7.87283 5.05781ZM10.5997 2C10.5997 1.66863 10.331 1.4 9.99967 1.4C9.6683 1.4 9.39967 1.66863 9.39967 2H10.5997ZM9.39967 2.66667C9.39967 2.99804 9.6683 3.26667 9.99967 3.26667C10.331 3.26667 10.5997 2.99804 10.5997 2.66667H9.39967ZM13.7238 3.7911C13.9581 3.55678 13.9581 3.17688 13.7238 2.94257C13.4895 2.70825 13.1096 2.70825 12.8752 2.94257L13.7238 3.7911ZM12.4038 3.41397C12.1695 3.64829 12.1695 4.02819 12.4038 4.2625C12.6382 4.49681 13.018 4.49681 13.2524 4.2625L12.4038 3.41397ZM14.6663 7.26667C14.9977 7.26667 15.2663 6.99804 15.2663 6.66667C15.2663 6.3353 14.9977 6.06667 14.6663 6.06667V7.26667ZM13.9997 6.06667C13.6683 6.06667 13.3997 6.3353 13.3997 6.66667C13.3997 6.99804 13.6683 7.26667 13.9997 7.26667V6.06667ZM5.99967 13.4C3.75372 13.4 1.93301 11.5793 1.93301 9.33333H0.733008C0.733008 12.242 3.09097 14.6 5.99967 14.6V13.4ZM1.93301 9.33333C1.93301 7.08738 3.75372 5.26667 5.99967 5.26667V4.06667C3.09097 4.06667 0.733008 6.42463 0.733008 9.33333H1.93301ZM14.0663 10.6667C14.0663 12.1762 12.8426 13.4 11.333 13.4V14.6C13.5053 14.6 15.2663 12.839 15.2663 10.6667H14.0663ZM9.4197 8.71465C9.71599 8.42419 10.0774 8.20111 10.4793 8.06913L10.1048 6.92905C9.52462 7.11961 9.0047 7.44104 8.57965 7.85773L9.4197 8.71465ZM10.4793 8.06913C10.7471 7.98116 11.0339 7.93333 11.333 7.93333V6.73333C10.9051 6.73333 10.492 6.80188 10.1048 6.92905L10.4793 8.06913ZM11.333 13.4H5.99967V14.6H11.333V13.4ZM9.99967 4.6C11.1411 4.6 12.0663 5.52528 12.0663 6.66667H13.2663C13.2663 4.86254 11.8038 3.4 9.99967 3.4V4.6ZM12.0663 6.66667C12.0663 6.90757 12.0254 7.13761 11.9505 7.35102L13.0829 7.74822C13.2019 7.40893 13.2663 7.04468 13.2663 6.66667H12.0663ZM11.333 7.93333C11.6759 7.93333 12.0028 7.9962 12.3036 8.11049L12.7298 6.98874C12.2949 6.82351 11.8238 6.73333 11.333 6.73333V7.93333ZM12.3036 8.11049C13.335 8.50238 14.0663 9.49986 14.0663 10.6667H15.2663C15.2663 8.9853 14.2116 7.55177 12.7298 6.98874L12.3036 8.11049ZM8.35107 5.42014C8.72943 4.92074 9.32699 4.6 9.99967 4.6V3.4C8.93545 3.4 7.99003 3.90955 7.39458 4.69548L8.35107 5.42014ZM5.99967 5.26667C6.58133 5.26667 7.13297 5.38842 7.63176 5.60726L8.11389 4.50837C7.466 4.22412 6.75043 4.06667 5.99967 4.06667V5.26667ZM7.63176 5.60726C8.5766 6.02179 9.33428 6.78591 9.74043 7.73512L10.8437 7.26306C10.3175 6.03341 9.33768 5.04529 8.11389 4.50837L7.63176 5.60726ZM9.39967 2V2.66667H10.5997V2H9.39967ZM12.8752 2.94257L12.4038 3.41397L13.2524 4.2625L13.7238 3.7911L12.8752 2.94257ZM14.6663 6.06667H13.9997V7.26667H14.6663V6.06667Z" fill="#717171"/>
</g>
</svg>
