<svg width="18" height="16" viewBox="0 0 18 16" fill="none" xmlns="http://www.w3.org/2000/svg">
<g id="driving-svgrepo-com 1">
<path id="Vector" opacity="0.4" d="M15.2011 3.83588H14.4729C14.4627 3.83588 14.4627 3.83588 14.4627 3.83588L14.1857 2.51283C13.9191 1.23078 13.3755 0.0512695 11.1909 0.0512695H9.17035H8.07292H6.05238C3.86777 0.0512695 3.32418 1.23078 3.05751 2.51283L2.78059 3.83588C2.77033 3.83588 2.77033 3.83588 2.77033 3.83588H2.04212C1.73442 3.83588 1.48828 4.08202 1.48828 4.38971C1.48828 4.6974 1.73442 4.9436 2.04212 4.9436H2.5652L2.25751 6.41025C2.65751 6.18461 3.2011 6.04104 3.96008 6.04104H13.2934C14.0524 6.04104 14.6063 6.18461 14.996 6.41025L14.6883 4.9436H15.2114C15.5191 4.9436 15.7652 4.6974 15.7652 4.38971C15.755 4.08202 15.5088 3.83588 15.2011 3.83588Z" fill="#313131"/>
<path id="Subtract" fill-rule="evenodd" clip-rule="evenodd" d="M16.0619 8.53331C15.9491 7.32306 15.6311 6.04102 13.2824 6.04102H3.94914C1.60042 6.04102 1.28247 7.33331 1.16965 8.53331L0.759391 12.9845C0.708109 13.5384 0.892725 14.0922 1.27221 14.5127C1.66196 14.9332 2.21581 15.1795 2.79017 15.1795H4.16452C5.33892 15.1795 5.56768 14.5084 5.72149 14.0571L5.72348 14.0513L5.86709 13.6102C6.0312 13.1076 6.07221 12.9845 6.73884 12.9845H10.4824C11.1341 12.9845 11.159 13.0553 11.3501 13.5983L11.3542 13.6102L11.4978 14.0513L11.4998 14.0571C11.6536 14.5084 11.8824 15.1795 13.0568 15.1795H14.4311C15.0055 15.1795 15.5594 14.9332 15.9491 14.5127C16.3286 14.1025 16.5132 13.5384 16.4619 12.9845L16.0619 8.53331ZM6.42036 10.0613H4.22549C3.91779 10.0613 3.67163 9.81512 3.67163 9.50743C3.67163 9.19974 3.91779 8.95361 4.22549 8.95361H6.42036C6.72805 8.95361 6.97421 9.19974 6.97421 9.50743C6.96395 9.81512 6.71779 10.0613 6.42036 10.0613ZM10.8099 10.0613H13.0048C13.3125 10.0613 13.5587 9.81512 13.5587 9.50743C13.5587 9.19974 13.3125 8.95361 13.0048 8.95361H10.8099C10.5023 8.95361 10.2561 9.19974 10.2561 9.50743C10.2561 9.81512 10.5023 10.0613 10.8099 10.0613Z" fill="#313131"/>
</g>
</svg>
